<svg width="43" height="43" viewBox="0 0 43 43" fill="none" xmlns="http://www.w3.org/2000/svg">
<path d="M21.3566 0.500977C9.90969 0.500977 0.544067 9.8666 0.544067 21.3135C0.544067 32.7604 9.90969 42.126 21.3566 42.126C28.7624 42.126 35.301 38.2063 38.9865 32.3354C39.316 31.8151 38.735 31.1994 38.1974 31.4943C37.6163 31.8238 37.07 32.084 36.6017 32.24C33.4105 33.3327 31.6501 33.3761 29.4821 33.2807C27.0627 33.1766 24.1142 32.3441 22.0417 31.1127C19.9691 29.8813 18.2694 28.1122 17.3502 26.5773C16.4309 25.0424 15.8759 23.1172 16.1274 20.6544C16.3789 18.1396 18.677 16.093 21.3652 16.093C24.2703 16.093 26.6377 18.3997 26.6377 21.3048C26.6377 22.779 25.9353 24.0538 25.0334 25.0771C24.834 25.2592 24.3744 25.9182 25.5364 26.8115C26.9152 27.8694 30.0111 28.3724 32.4653 28.251C34.9194 28.1296 37.5903 27.1583 39.4201 25.2332C40.877 23.6982 42.1778 21.2354 42.1778 18.5211C42.1691 7.67262 32.1097 0.500977 21.3566 0.500977Z" fill="black"/>
</svg>
